<svg xmlns="http://www.w3.org/2000/svg" xmlns:xlink="http://www.w3.org/1999/xlink" width="156" zoomAndPan="magnify" viewBox="0 0 116.88 59.249999" height="79" preserveAspectRatio="xMidYMid meet" version="1.0"><defs><g/></defs><g fill="#fffcf2" fill-opacity="1"><g transform="translate(18.041222, 48.757814)"><g><path d="M 32.617188 0.390625 C 32.667969 0.339844 32.910156 -0.046875 33.203125 -0.585938 L 33.742188 -1.558594 L 34.570312 -2.828125 L 35.203125 -3.753906 C 35.691406 -4.484375 36.957031 -6.191406 37.007812 -6.242188 C 37.105469 -6.289062 37.59375 -6.972656 37.59375 -7.019531 L 37.691406 -7.167969 L 38.226562 -7.851562 L 39.203125 -9.167969 L 39.640625 -9.652344 L 44.273438 -15.164062 L 44.46875 -15.40625 L 46.515625 -17.554688 C 47.832031 -18.820312 48.269531 -19.308594 48.515625 -19.601562 L 49.34375 -20.378906 C 49.636719 -20.671875 49.929688 -20.964844 49.976562 -21.113281 L 50.171875 -21.308594 C 50.21875 -21.308594 50.464844 -21.503906 50.707031 -21.792969 C 51.246094 -22.378906 52.023438 -23.109375 52.414062 -23.402344 C 52.804688 -23.648438 54.023438 -24.671875 54.609375 -25.207031 L 55.777344 -26.28125 C 56.511719 -26.914062 56.609375 -27.109375 56.363281 -27.253906 C 56.167969 -27.402344 55.875 -27.304688 55.390625 -26.816406 C 55.097656 -26.574219 54.804688 -26.328125 54.753906 -26.328125 C 54.65625 -26.28125 54.609375 -26.230469 54.609375 -26.183594 C 54.609375 -26.035156 51.292969 -23.304688 50.902344 -23.160156 L 50.171875 -22.769531 L 47.539062 -21.257812 C 47.199219 -21.0625 46.757812 -20.769531 46.5625 -20.625 C 46.367188 -20.429688 46.171875 -20.332031 46.125 -20.332031 L 45.589844 -19.992188 C 45.34375 -19.796875 44.953125 -19.503906 44.710938 -19.40625 L 44.078125 -18.964844 C 43.832031 -18.773438 42.371094 -17.84375 42.273438 -17.84375 L 41.980469 -17.648438 L 41.6875 -17.503906 C 41.6875 -17.554688 41.445312 -17.40625 41.199219 -17.210938 L 41.054688 -17.113281 L 40.128906 -16.578125 C 39.6875 -16.332031 39.25 -16.089844 39.203125 -16.089844 C 39.152344 -16.089844 39.054688 -16.042969 39.007812 -15.992188 C 38.761719 -15.652344 37.007812 -14.917969 36.421875 -14.871094 C 36.03125 -14.824219 35.984375 -14.824219 36.082031 -14.96875 C 36.082031 -15.066406 36.226562 -15.261719 36.324219 -15.457031 L 36.617188 -15.894531 L 37.007812 -16.429688 C 37.152344 -16.675781 37.496094 -17.113281 37.691406 -17.457031 L 38.128906 -18.1875 L 38.664062 -18.871094 C 39.054688 -19.40625 39.882812 -20.332031 40.273438 -20.769531 L 41.445312 -21.941406 L 41.980469 -22.574219 C 42.371094 -23.015625 42.710938 -23.402344 43.152344 -23.84375 C 43.25 -23.941406 43.34375 -24.085938 43.34375 -24.085938 C 43.34375 -24.136719 43.832031 -24.574219 44.417969 -25.109375 L 45.882812 -26.425781 L 46.417969 -26.964844 C 47.683594 -27.9375 48.222656 -28.425781 48.515625 -28.816406 L 49 -29.304688 L 49.34375 -29.695312 L 50.367188 -30.816406 L 51.878906 -32.425781 C 52.21875 -32.765625 52.464844 -33.007812 52.804688 -33.398438 L 53.195312 -33.839844 L 53.632812 -34.277344 C 54.171875 -34.910156 54.171875 -35.300781 53.585938 -35.300781 C 53.4375 -35.300781 53.242188 -35.203125 52.949219 -34.863281 L 51.195312 -33.007812 C 50.902344 -32.765625 50.5625 -32.425781 50.414062 -32.230469 C 50.269531 -31.984375 49.976562 -31.691406 49.78125 -31.496094 C 49 -30.667969 48.5625 -30.230469 47.929688 -29.5 C 47.296875 -28.816406 46.074219 -27.644531 45.929688 -27.644531 C 45.832031 -27.644531 44.757812 -26.671875 44.808594 -26.621094 C 44.855469 -26.621094 44.371094 -26.132812 43.785156 -25.597656 C 42.664062 -24.574219 42.417969 -24.332031 41.542969 -23.355469 C 41.296875 -23.0625 41.054688 -22.820312 41.003906 -22.820312 C 40.957031 -22.867188 40.90625 -22.867188 40.957031 -22.820312 C 41.003906 -22.769531 40.761719 -22.429688 40.421875 -22.085938 L 39.054688 -20.625 C 38.664062 -20.136719 38.128906 -19.503906 37.933594 -19.210938 L 37.59375 -18.722656 C 37.445312 -18.578125 36.519531 -17.164062 36.519531 -17.113281 L 36.179688 -16.625 C 35.738281 -16.042969 35.105469 -14.871094 35.105469 -14.675781 C 35.105469 -14.089844 36.421875 -14.1875 37.835938 -14.824219 C 38.566406 -15.113281 39.640625 -15.75 39.835938 -15.945312 C 39.882812 -16.042969 39.980469 -16.089844 40.03125 -16.089844 C 40.078125 -16.089844 40.324219 -16.1875 40.566406 -16.332031 L 42.515625 -17.554688 L 43.734375 -18.234375 C 43.785156 -18.234375 43.882812 -18.332031 43.929688 -18.429688 C 44.027344 -18.527344 44.125 -18.625 44.175781 -18.625 C 44.222656 -18.625 44.371094 -18.722656 44.566406 -18.871094 C 44.757812 -19.015625 45.003906 -19.210938 45.101562 -19.257812 L 45.492188 -19.453125 C 45.734375 -19.648438 46.367188 -20.039062 46.515625 -20.136719 L 46.808594 -20.332031 C 47.101562 -20.574219 48.125 -21.160156 48.222656 -21.160156 C 48.269531 -21.160156 48.367188 -21.210938 48.417969 -21.308594 C 48.515625 -21.40625 48.710938 -21.550781 48.902344 -21.648438 L 49.878906 -22.136719 L 49.539062 -21.746094 L 48.074219 -20.285156 C 48.027344 -20.1875 47.148438 -19.257812 46.808594 -18.964844 C 46.515625 -18.722656 45.882812 -18.039062 45.492188 -17.554688 L 44.953125 -16.917969 L 44.320312 -16.332031 L 43.785156 -15.652344 L 42.273438 -13.945312 L 41.640625 -13.117188 L 41.25 -12.675781 C 41.101562 -12.480469 40.957031 -12.285156 40.90625 -12.285156 C 40.859375 -12.285156 40.859375 -12.238281 40.859375 -12.191406 C 40.859375 -12.09375 39.980469 -11.019531 39.835938 -10.921875 L 39.347656 -10.289062 L 38.714844 -9.507812 L 38.03125 -8.628906 L 37.054688 -7.265625 L 36.277344 -6.144531 C 35.398438 -4.828125 34.8125 -4 34.667969 -3.851562 C 34.570312 -3.753906 34.519531 -3.707031 34.570312 -3.707031 C 34.570312 -3.707031 34.519531 -3.558594 34.421875 -3.414062 L 33.496094 -1.902344 L 32.8125 -0.535156 C 32.570312 -0.046875 32.472656 0.4375 32.617188 0.390625 Z M 5.265625 1.121094 C 5.851562 1.414062 7.265625 1.171875 8.628906 0.585938 C 8.824219 0.488281 9.167969 0.339844 9.363281 0.339844 C 9.996094 0.195312 14.824219 -2.195312 15.308594 -2.632812 L 16.332031 -3.316406 C 17.261719 -3.902344 17.210938 -3.851562 17.746094 -4.339844 L 18.871094 -5.21875 L 20.285156 -6.386719 L 21.160156 -7.167969 L 21.746094 -7.605469 C 21.988281 -7.800781 22.429688 -8.140625 22.722656 -8.433594 L 27.402344 -12.382812 C 28.183594 -13.066406 29.402344 -14.089844 30.035156 -14.53125 C 30.472656 -14.871094 30.914062 -15.261719 30.914062 -15.40625 C 30.914062 -15.503906 31.300781 -15.847656 31.398438 -15.796875 C 31.449219 -15.796875 31.546875 -15.796875 31.644531 -15.894531 L 34.375 -18.1875 C 34.472656 -18.285156 34.570312 -18.429688 34.617188 -18.578125 C 34.667969 -18.675781 34.765625 -18.820312 34.910156 -18.871094 C 35.105469 -18.917969 36.082031 -19.746094 36.519531 -20.234375 L 37.007812 -20.722656 L 39.835938 -23.355469 C 40.226562 -23.695312 40.710938 -24.234375 40.90625 -24.523438 C 41.101562 -24.816406 41.296875 -25.011719 41.394531 -24.964844 C 41.445312 -24.964844 41.492188 -24.964844 41.492188 -25.011719 C 41.492188 -25.109375 41.980469 -25.550781 42.222656 -25.695312 C 42.320312 -25.742188 42.371094 -25.839844 42.371094 -25.9375 C 42.320312 -26.035156 42.371094 -26.085938 42.515625 -26.085938 C 42.664062 -26.085938 42.761719 -26.183594 42.808594 -26.328125 C 42.859375 -26.476562 42.957031 -26.574219 43.003906 -26.574219 C 43.101562 -26.574219 43.492188 -26.914062 44.417969 -27.742188 L 45.394531 -28.570312 C 46.367188 -29.351562 47.003906 -29.984375 46.953125 -30.132812 C 46.855469 -30.277344 46.613281 -30.277344 46.515625 -30.082031 C 46.464844 -30.035156 46.222656 -29.792969 45.929688 -29.546875 C 45.050781 -28.816406 43.296875 -27.15625 43.199219 -26.964844 C 43.152344 -26.867188 43.101562 -26.816406 43.054688 -26.816406 C 43.003906 -26.867188 42.761719 -26.671875 42.566406 -26.476562 L 41.835938 -25.792969 C 41.6875 -25.648438 41.445312 -25.402344 41.347656 -25.257812 C 41.25 -25.109375 41.101562 -25.011719 41.054688 -25.011719 C 41.054688 -25.011719 40.273438 -24.332031 39.445312 -23.5 C 37.007812 -21.210938 35.496094 -19.796875 35.445312 -19.796875 C 35.398438 -19.796875 34.226562 -18.675781 33.300781 -17.84375 L 32.277344 -16.96875 C 31.984375 -16.773438 31.644531 -16.429688 31.449219 -16.285156 C 31.300781 -16.089844 31.109375 -15.945312 31.058594 -15.945312 C 31.011719 -15.945312 30.863281 -15.847656 30.71875 -15.699219 L 28.132812 -13.601562 L 27.15625 -12.824219 C 27.011719 -12.675781 26.867188 -12.628906 26.867188 -12.628906 C 26.816406 -12.628906 26.71875 -12.53125 26.621094 -12.433594 L 25.355469 -11.3125 C 23.941406 -10.191406 23.550781 -9.847656 22.625 -9.019531 C 22.183594 -8.628906 21.695312 -8.238281 21.550781 -8.191406 C 21.355469 -8.09375 21.210938 -8.046875 21.210938 -7.996094 C 21.210938 -7.949219 20.964844 -7.65625 20.625 -7.363281 L 19.84375 -6.632812 C 19.746094 -6.484375 19.601562 -6.386719 19.503906 -6.386719 C 19.453125 -6.386719 19.308594 -6.289062 19.160156 -6.144531 C 19.015625 -5.949219 18.820312 -5.800781 18.675781 -5.753906 C 18.578125 -5.753906 18.332031 -5.605469 18.234375 -5.507812 L 17.796875 -5.121094 C 17.699219 -5.070312 17.503906 -4.828125 17.359375 -4.679688 C 17.210938 -4.484375 17.113281 -4.339844 17.066406 -4.386719 C 17.015625 -4.386719 16.722656 -4.242188 16.382812 -4 C 16.042969 -3.753906 15.699219 -3.558594 15.652344 -3.558594 L 14.628906 -2.925781 C 14.089844 -2.585938 13.507812 -2.242188 13.3125 -2.195312 L 12.53125 -1.753906 L 11.457031 -1.269531 C 10.140625 -0.730469 9.898438 -0.632812 9.363281 -0.4375 L 8.140625 0 C 7.800781 0.144531 7.3125 0.242188 6.824219 0.242188 C 5.996094 0.292969 5.996094 0.292969 6.09375 0.046875 C 6.242188 -0.488281 6.242188 -0.632812 6.046875 -0.730469 C 5.949219 -0.828125 5.800781 -0.828125 5.605469 -0.78125 C 5.21875 -0.632812 4.972656 -0.242188 4.925781 0.390625 L 4.875 0.976562 Z M 5.265625 1.121094 "/></g></g></g><g fill="#fffcf2" fill-opacity="1"><g transform="translate(67.6767, 48.757814)"><g><path d="M -0.488281 -13.3125 C 0.046875 -13.410156 0.390625 -13.507812 1.269531 -13.945312 L 3.460938 -14.917969 L 4.09375 -15.210938 C 4.144531 -15.261719 4.144531 -15.40625 4.046875 -15.457031 L 4 -15.503906 L 3.851562 -15.503906 L 3.753906 -15.457031 C 1.074219 -14.285156 -0.535156 -13.699219 -0.828125 -13.796875 C -0.925781 -13.847656 -0.925781 -13.894531 -0.78125 -14.042969 C -0.683594 -14.238281 -0.585938 -14.285156 -0.242188 -14.382812 C 0.292969 -14.53125 0.78125 -14.773438 1.609375 -15.359375 C 2.390625 -15.894531 2.730469 -16.1875 2.683594 -16.332031 C 2.585938 -16.625 2.144531 -16.578125 1.363281 -16.285156 C 0.390625 -15.945312 -0.730469 -15.066406 -1.21875 -14.285156 C -1.460938 -13.894531 -1.511719 -13.75 -1.414062 -13.554688 C -1.363281 -13.214844 -1.269531 -13.214844 -0.488281 -13.3125 Z M -0.0976562 -14.917969 C -0.046875 -15.066406 0.78125 -15.652344 1.121094 -15.75 C 1.414062 -15.894531 1.902344 -16.089844 1.902344 -15.992188 C 1.851562 -15.945312 1.121094 -15.457031 0.683594 -15.210938 C 0.144531 -14.917969 -0.195312 -14.824219 -0.0976562 -14.917969 Z M -0.0976562 -14.917969 "/></g></g></g><g fill="#fffcf2" fill-opacity="1"><g transform="translate(71.577326, 48.757814)"><g><path d="M -2.144531 -10.042969 C -2.097656 -10.042969 -2.046875 -10.289062 -1.949219 -10.824219 C -1.851562 -11.703125 -1.558594 -12.335938 -0.828125 -13.410156 C -0.195312 -14.382812 1.707031 -16.820312 1.804688 -16.820312 C 1.851562 -16.871094 1.902344 -16.917969 1.902344 -16.96875 C 2 -17.066406 2.097656 -17.113281 2.195312 -17.164062 L 3.070312 -17.746094 C 3.511719 -17.992188 3.609375 -18.039062 4 -18.332031 L 4.4375 -18.625 C 4.484375 -18.625 4.972656 -18.917969 5.265625 -19.160156 C 5.605469 -19.40625 6.535156 -19.992188 6.679688 -20.089844 L 7.167969 -20.429688 L 7.703125 -20.820312 L 8.335938 -21.308594 L 9.554688 -22.28125 C 10.289062 -22.820312 11.996094 -24.332031 12.09375 -24.769531 C 12.191406 -25.160156 11.898438 -25.355469 11.359375 -25.160156 C 10.824219 -25.011719 10.09375 -24.574219 9.703125 -24.28125 C 9.265625 -23.988281 8.679688 -23.695312 8.238281 -23.355469 C 6.972656 -22.429688 5.65625 -21.40625 4.386719 -20.285156 C 3.851562 -19.796875 2.730469 -18.722656 2.488281 -18.527344 L 1.511719 -17.554688 C 1.414062 -17.503906 1.363281 -17.503906 1.363281 -17.503906 C 1.316406 -17.554688 1.269531 -17.503906 1.269531 -17.503906 C 1.269531 -17.40625 0.730469 -17.261719 0.632812 -17.308594 C 0.585938 -17.359375 0.535156 -17.308594 0.535156 -17.261719 C 0.535156 -17.164062 0.78125 -16.917969 0.878906 -16.917969 L 0.976562 -16.917969 C 0.828125 -16.773438 0.78125 -16.675781 0.78125 -16.625 L 0.585938 -16.382812 C 0.4375 -16.238281 0.339844 -16.140625 0.339844 -16.089844 C 0.339844 -16.042969 0.339844 -15.992188 0.292969 -15.992188 C 0.242188 -15.992188 0.0976562 -15.796875 -0.0976562 -15.554688 L -0.488281 -15.066406 C -0.535156 -15.066406 -0.535156 -14.96875 -0.535156 -14.917969 C -0.585938 -14.824219 -0.632812 -14.773438 -0.683594 -14.773438 L -0.828125 -14.628906 C -0.828125 -14.53125 -0.828125 -14.53125 -0.878906 -14.53125 C -0.925781 -14.53125 -0.976562 -14.480469 -0.976562 -14.433594 C -0.976562 -14.335938 -1.023438 -14.285156 -1.074219 -14.285156 C -1.074219 -14.335938 -1.121094 -14.285156 -1.121094 -14.238281 C -1.121094 -14.140625 -1.414062 -13.699219 -1.65625 -13.359375 C -1.851562 -13.066406 -1.902344 -12.921875 -1.949219 -12.824219 C -1.949219 -12.726562 -2 -12.628906 -2.046875 -12.480469 C -2.292969 -12.140625 -2.488281 -11.261719 -2.390625 -10.726562 C -2.339844 -10.191406 -2.292969 -10.09375 -2.144531 -10.042969 Z M 3.167969 -18.285156 C 3.023438 -18.234375 3.121094 -18.285156 3.511719 -18.722656 C 3.949219 -19.210938 6.4375 -21.355469 6.535156 -21.355469 L 8.289062 -22.769531 L 9.019531 -23.257812 L 9.410156 -23.597656 L 9.703125 -23.792969 L 10.484375 -24.28125 L 10.824219 -24.476562 L 11.066406 -24.621094 L 11.164062 -24.671875 C 11.214844 -24.71875 11.261719 -24.71875 11.359375 -24.71875 C 11.410156 -24.769531 11.457031 -24.71875 11.457031 -24.621094 C 11.457031 -24.621094 11.457031 -24.574219 11.410156 -24.523438 L 11.3125 -24.425781 L 11.3125 -24.378906 L 11.164062 -24.28125 L 11.117188 -24.234375 L 11.019531 -24.085938 L 10.871094 -23.941406 L 10.191406 -23.304688 L 9.265625 -22.574219 C 8.875 -22.234375 8.582031 -21.988281 8.53125 -21.988281 L 8.238281 -21.792969 C 7.851562 -21.453125 6.730469 -20.671875 6.535156 -20.527344 C 6.339844 -20.429688 5.753906 -20.039062 5.558594 -19.894531 C 5.265625 -19.648438 4.484375 -19.0625 4.289062 -18.964844 L 4.09375 -18.820312 Z M 3.167969 -18.285156 "/></g></g></g><g fill="#fffcf2" fill-opacity="1"><g transform="translate(75.868014, 48.757814)"><g><path d="M -0.0976562 -12.53125 C 0.0976562 -12.53125 0.683594 -13.019531 0.976562 -13.457031 C 1.074219 -13.601562 1.707031 -14.335938 1.902344 -14.824219 C 2 -15.066406 2.144531 -15.066406 2.339844 -15.066406 C 2.535156 -15.113281 2.585938 -14.96875 2.730469 -14.96875 L 3.558594 -14.773438 L 4.242188 -14.675781 C 4.777344 -14.578125 5.265625 -14.53125 5.898438 -14.53125 L 6.824219 -14.53125 C 7.117188 -14.53125 8.09375 -14.675781 8.289062 -14.675781 L 8.824219 -14.773438 C 9.363281 -14.917969 9.703125 -15.066406 9.703125 -15.210938 C 9.507812 -15.457031 9.554688 -15.261719 9.019531 -15.164062 C 8.726562 -15.066406 7.703125 -14.871094 5.703125 -14.871094 C 4.339844 -14.917969 3.460938 -15.164062 2.585938 -15.554688 C 1.949219 -15.796875 1.609375 -15.652344 1.65625 -15.554688 C 1.65625 -15.503906 1.558594 -15.164062 1.363281 -14.824219 C 1.121094 -14.238281 0.976562 -14.042969 0.535156 -13.601562 C 0.046875 -13.117188 -0.144531 -12.96875 -0.195312 -13.117188 C -0.292969 -13.359375 0 -14.433594 0.339844 -15.113281 C 0.585938 -15.554688 0.828125 -16.089844 0.683594 -16.332031 L 0.632812 -16.480469 C 0.632812 -16.480469 0.535156 -16.480469 0.4375 -16.429688 C 0.390625 -16.429688 0.242188 -16.285156 0.144531 -16.042969 C 0.0976562 -15.992188 0 -15.503906 -0.046875 -15.457031 C -0.390625 -14.773438 -0.683594 -13.945312 -0.730469 -13.507812 C -0.78125 -12.871094 -0.535156 -12.480469 -0.0976562 -12.53125 Z M -0.0976562 -12.53125 "/></g></g></g><g fill="#fffcf2" fill-opacity="1"><g transform="translate(85.570822, 48.757814)"><g><path d="M 2.046875 -16.773438 C 2.242188 -16.820312 2.4375 -17.164062 2.390625 -17.359375 C 2.390625 -17.457031 2.292969 -17.554688 2.242188 -17.601562 C 2.046875 -17.746094 1.851562 -17.648438 1.804688 -17.359375 C 1.804688 -17.210938 1.753906 -17.113281 1.707031 -17.066406 C 1.558594 -16.96875 1.851562 -16.675781 2.046875 -16.773438 Z M -0.730469 -13.261719 C -0.195312 -13.3125 0.730469 -13.601562 1.511719 -13.945312 L 3.65625 -14.917969 L 4.242188 -15.164062 C 4.386719 -15.261719 4.386719 -15.40625 4.289062 -15.457031 L 4.191406 -15.503906 L 4.09375 -15.503906 L 4 -15.457031 C 1.851562 -14.53125 0.390625 -13.945312 -0.292969 -13.796875 C -0.292969 -13.796875 -0.683594 -13.652344 -0.878906 -13.75 C -0.878906 -13.945312 -0.828125 -14.140625 -0.683594 -14.335938 L 0.144531 -15.015625 C 0.730469 -15.503906 0.878906 -15.75 0.632812 -15.847656 C 0.535156 -15.894531 0.144531 -15.75 -0.195312 -15.503906 C -1.074219 -14.773438 -1.460938 -14.285156 -1.460938 -13.796875 L -1.460938 -13.652344 C -1.460938 -13.359375 -1.21875 -13.214844 -0.730469 -13.261719 Z M -0.730469 -13.261719 "/></g></g></g><g fill="#fffcf2" fill-opacity="1"><g transform="translate(89.666479, 48.757814)"><g><path d="M 2.875 -13.066406 L 3.902344 -13.214844 C 4.828125 -13.410156 6.484375 -13.992188 6.484375 -13.992188 L 7.167969 -14.285156 L 7.703125 -14.53125 L 7.996094 -14.675781 C 8.386719 -14.871094 8.433594 -14.871094 8.824219 -15.015625 C 9.363281 -15.210938 9.605469 -15.308594 9.265625 -15.457031 C 9.167969 -15.503906 8.824219 -15.40625 7.800781 -14.96875 C 7.070312 -14.675781 6.046875 -14.285156 5.558594 -14.140625 C 3.21875 -13.410156 2.046875 -13.261719 2.046875 -13.894531 C 2 -14.089844 2.097656 -14.335938 2.4375 -14.675781 C 2.828125 -15.113281 2.828125 -15.945312 2.097656 -15.40625 C 2 -15.308594 1.753906 -15.210938 1.558594 -15.113281 L 0 -14.433594 L 0.339844 -14.96875 C 0.488281 -15.261719 0.488281 -15.261719 0.339844 -15.457031 C 0.144531 -15.699219 -0.046875 -15.652344 -0.390625 -15.164062 L -0.730469 -14.726562 C -0.828125 -14.480469 -1.21875 -13.894531 -1.414062 -13.699219 L -1.414062 -13.554688 C -1.511719 -13.410156 -1.363281 -13.214844 -1.171875 -13.214844 C -1.121094 -13.164062 -0.976562 -13.261719 -0.828125 -13.3125 C -0.390625 -13.601562 1.121094 -14.433594 1.609375 -14.675781 L 1.65625 -14.675781 L 1.558594 -14.480469 L 1.558594 -14.433594 L 1.460938 -14.285156 C 1.316406 -14.042969 1.414062 -13.457031 1.609375 -13.3125 C 1.902344 -13.066406 2.390625 -13.019531 2.875 -13.066406 Z M 2.875 -13.066406 "/></g></g></g></svg>